<?xml version="1.0" encoding="UTF-8" standalone="no"?>
<svg width="49px" height="41px" viewBox="0 0 49 41" version="1.1" xmlns="http://www.w3.org/2000/svg" xmlns:xlink="http://www.w3.org/1999/xlink">
    <!-- Generator: Sketch 47.1 (45422) - http://www.bohemiancoding.com/sketch -->
    <title>Maison--</title>
    <desc>Created with Sketch.</desc>
    <defs>
        <path d="M41.5,13.2 L21.5,0.2 C21.2,8.8817842e-16 20.7,8.8817842e-16 20.4,0.2 L0.4,13.2 L1.5,14.9 L6,12 L6,32 C6,32.6 6.4,33 7,33 L17,33 C17.6,33 18,32.6 18,32 L18,23 L24,23 L24,32 C24,32.6 24.4,33 25,33 L35,33 C35.6,33 36,32.6 36,32 L36,11.9 L40.5,14.8 L41.5,13.2 Z M34,31 L26,31 L26,23 C26,21.9 25.1,21 24,21 L18,21 C16.9,21 16,21.9 16,23 L16,31 L8,31 L8,10.6 L21,2.2 L34,10.6 L34,31 Z" id="path-1"></path>
        <filter x="-17.0%" y="-15.2%" width="134.1%" height="142.5%" filterUnits="objectBoundingBox" id="filter-2">
            <feOffset dx="0" dy="2" in="SourceAlpha" result="shadowOffsetOuter1"></feOffset>
            <feGaussianBlur stdDeviation="2" in="shadowOffsetOuter1" result="shadowBlurOuter1"></feGaussianBlur>
            <feColorMatrix values="0 0 0 0 0   0 0 0 0 0   0 0 0 0 0  0 0 0 0.5 0" type="matrix" in="shadowBlurOuter1"></feColorMatrix>
        </filter>
    </defs>
    <g id="Page-1" stroke="none" stroke-width="1" fill="none" fill-rule="evenodd">
        <g id="house" transform="translate(4.000000, 2.000000)" fill-rule="nonzero">
            <g id="Maison--">
                <use fill="black" fill-opacity="1" filter="url(#filter-2)" xlink:href="#path-1"></use>
                <use fill="#4A4A4A" fill-rule="evenodd" xlink:href="#path-1"></use>
            </g>
        </g>
    </g>
</svg>